<?xml version="1.0" standalone="no"?>
<!DOCTYPE svg PUBLIC "-//W3C//DTD SVG 20010904//EN"
 "http://www.w3.org/TR/2001/REC-SVG-20010904/DTD/svg10.dtd">
<svg version="1.0" xmlns="http://www.w3.org/2000/svg"
 width="260.000000pt" height="260.000000pt" viewBox="0 0 260.000000 260.000000"
 preserveAspectRatio="xMidYMid meet">
<metadata>
Created by potrace 1.11, written by Peter Selinger 2001-2013
</metadata>
<g transform="translate(0.000000,260.000000) scale(0.100000,-0.100000)"
fill="#000000" stroke="none">
<path d="M2380 1348 c-76 -41 -232 -92 -375 -122 -214 -44 -386 -60 -665 -60
-430 0 -771 57 -1022 171 -70 32 -79 34 -113 23 -45 -15 -105 -66 -105 -89 0
-63 154 -127 411 -170 257 -43 432 -55 834 -55 402 0 577 12 834 55 256 43
411 107 411 169 0 30 -77 88 -135 102 -11 3 -44 -8 -75 -24z"/>
</g>
</svg>
